# xmcd CD database file generated by Grip 3.2.0
# 
# Track frame offsets:
#       150
#       12108
#       28612
#       44373
#       60813
#       77935
#       91228
#       107876
#       119306
#       136573
#       152338
#       178384
# 
# Disc length: 3204 seconds
# 
# Revision: 0
# Processed by: cddbd v1.5.2PL0 Copyright (c) Steve Scherf et al.
# Submitted via: Grip 3.2.0
# 
DISCID=890c820c
DTITLE=The Handsome Family - In the Air
DYEAR=2000
DGENRE=Alternative
TTITLE0=Don't Be Scared
TTITLE1=The Sad Milkman
TTITLE2=In the Air
TTITLE3=A Beautiful Thing
TTITLE4=So Much Wine
TTITLE5=Up Falling Rock Hill
TTITLE6=Poor, Poor Lenore
TTITLE7=When That Helicopter Comes
TTITLE8=Grandmother Waits for You
TTITLE9=Lie Down
TTITLE10=My Beatiful Bride
TTITLE11=
EXTD=
EXTT0=
EXTT1=
EXTT2=
EXTT3=
EXTT4=
EXTT5=
EXTT6=
EXTT7=
EXTT8=
EXTT9=
EXTT10=
EXTT11=
PLAYORDER=
